<svg xmlns="http://www.w3.org/2000/svg" viewBox="-1.3915 -1.4972 3.0593 3.1614" role="img" aria-label="Planta do Supino Reto Articulado (LD-A032): 1330 × 1250 mm, com 60 cm de área de treino em volta" data-equipment="LD-A032" data-unit="m">
<title>Planta do Supino Reto Articulado (LD-A032): 1330 × 1250 mm, com 60 cm de área de treino em volta</title>
<rect class="eq-zone" x="-1.265" y="-1.225" width="2.53" height="2.45" style="fill:#96764a;fill-opacity:.12;stroke:#96764a;stroke-width:0.0152;stroke-dasharray:0.0911 0.0607"/>
<text class="eq-zone-label" x="0" y="-1.2705" style="font-family:Barlow,Inter,Arial,sans-serif;font-size:0.0865px;fill:#96764a;text-anchor:middle">área de treino · 2,53 × 2,45 m · 6,20 m²</text>
<g class="eq-parts">
<polygon class="eq-part" points="-0.435,-0.625 -0.355,-0.625 -0.355,0.625 -0.435,0.625" style="fill:#141413;stroke:#141413;stroke-width:0.0061;stroke-linejoin:round"/>
<polygon class="eq-part" points="-0.655,-0.615 -0.555,-0.615 -0.555,-0.515 -0.655,-0.515" style="fill:#141413;stroke:#141413;stroke-width:0.0061;stroke-linejoin:round"/>
<polygon class="eq-part" points="-0.445,0.515 -0.345,0.515 -0.345,0.615 -0.445,0.615" style="fill:#141413;stroke:#141413;stroke-width:0.0061;stroke-linejoin:round"/>
<polygon class="eq-part" points="0.355,-0.625 0.435,-0.625 0.435,0.625 0.355,0.625" style="fill:#141413;stroke:#141413;stroke-width:0.0061;stroke-linejoin:round"/>
<polygon class="eq-part" points="0.555,-0.615 0.655,-0.615 0.655,-0.515 0.555,-0.515" style="fill:#141413;stroke:#141413;stroke-width:0.0061;stroke-linejoin:round"/>
<polygon class="eq-part" points="0.345,0.515 0.445,0.515 0.445,0.615 0.345,0.615" style="fill:#141413;stroke:#141413;stroke-width:0.0061;stroke-linejoin:round"/>
<polygon class="eq-part" points="-0.665,-0.625 0.665,-0.625 0.665,-0.545 -0.665,-0.545" style="fill:#141413;stroke:#141413;stroke-width:0.0061;stroke-linejoin:round"/>
<polygon class="eq-part" points="-0.395,0.545 0.395,0.545 0.395,0.625 -0.395,0.625" style="fill:#141413;stroke:#141413;stroke-width:0.0061;stroke-linejoin:round"/>
<polygon class="eq-part" points="-0.04,-0.585 0.04,-0.585 0.04,0.585 -0.04,0.585" style="fill:#141413;stroke:#141413;stroke-width:0.0061;stroke-linejoin:round"/>
<polygon class="eq-part" points="-0.035,0.135 0.035,0.135 0.035,0.205 -0.035,0.205" style="fill:#141413;stroke:#141413;stroke-width:0.0061;stroke-linejoin:round"/>
<polygon class="eq-part" points="-0.21,-0.0045 -0.2073,-0.0159 -0.2025,-0.0225 -0.1959,-0.0273 -0.1845,-0.03 0.1845,-0.03 0.1959,-0.0273 0.2025,-0.0225 0.2073,-0.0159 0.21,-0.0045 0.21,0.3445 0.2073,0.3559 0.2025,0.3625 0.1959,0.3673 0.1845,0.37 -0.1845,0.37 -0.1959,0.3673 -0.2025,0.3625 -0.2073,0.3559 -0.21,0.3445" style="fill:#141413;stroke:#141413;stroke-width:0.0061;stroke-linejoin:round"/>
<polygon class="eq-part" points="-0.17,-0.1911 -0.1673,-0.2023 -0.1625,-0.2088 -0.1559,-0.2135 -0.1445,-0.2161 0.1445,-0.2161 0.1559,-0.2135 0.1625,-0.2088 0.1673,-0.2023 0.17,-0.1911 0.17,-0.0378 0.1673,-0.0266 0.1625,-0.0201 0.1559,-0.0154 0.1445,-0.0128 -0.1445,-0.0128 -0.1559,-0.0154 -0.1625,-0.0201 -0.1673,-0.0266 -0.17,-0.0378" style="fill:#141413;stroke:#141413;stroke-width:0.0061;stroke-linejoin:round"/>
<polygon class="eq-part" points="-0.03,-0.15 0.03,-0.15 0.03,-0.08 -0.03,-0.08" style="fill:#141413;stroke:#141413;stroke-width:0.0061;stroke-linejoin:round"/>
<polygon class="eq-part" points="-0.03,-0.2356 0.03,-0.2356 0.03,-0.0903 -0.03,-0.0903" style="fill:#141413;stroke:#141413;stroke-width:0.0061;stroke-linejoin:round"/>
<polygon class="eq-part" points="-0.03,-0.15 0.03,-0.15 0.03,-0.09 -0.03,-0.09" style="fill:#141413;stroke:#141413;stroke-width:0.0061;stroke-linejoin:round"/>
<polygon class="eq-part" points="0.35,-0.215 0.44,-0.215 0.44,-0.125 0.35,-0.125" style="fill:#141413;stroke:#141413;stroke-width:0.0061;stroke-linejoin:round"/>
<polygon class="eq-part" points="0.365,-0.1947 0.425,-0.1947 0.425,0.3347 0.365,0.3347" style="fill:#141413;stroke:#141413;stroke-width:0.0061;stroke-linejoin:round"/>
<polygon class="eq-part" points="0.235,0.292 0.395,0.292 0.395,0.328 0.235,0.328" style="fill:#141413;stroke:#141413;stroke-width:0.0061;stroke-linejoin:round"/>
<polygon class="eq-part" points="0.425,0.0726 0.44,0.0726 0.44,0.1826 0.425,0.1826" style="fill:#141413;stroke:#141413;stroke-width:0.0061;stroke-linejoin:round"/>
<polygon class="eq-part" points="0.44,0.1026 0.625,0.1026 0.625,0.1526 0.44,0.1526" style="fill:#141413;stroke:#141413;stroke-width:0.0061;stroke-linejoin:round"/>
<polygon class="eq-part" points="-0.44,-0.215 -0.35,-0.215 -0.35,-0.125 -0.44,-0.125" style="fill:#141413;stroke:#141413;stroke-width:0.0061;stroke-linejoin:round"/>
<polygon class="eq-part" points="-0.425,-0.1947 -0.365,-0.1947 -0.365,0.3347 -0.425,0.3347" style="fill:#141413;stroke:#141413;stroke-width:0.0061;stroke-linejoin:round"/>
<polygon class="eq-part" points="-0.395,0.292 -0.235,0.292 -0.235,0.328 -0.395,0.328" style="fill:#141413;stroke:#141413;stroke-width:0.0061;stroke-linejoin:round"/>
<polygon class="eq-part" points="-0.44,0.0726 -0.425,0.0726 -0.425,0.1826 -0.44,0.1826" style="fill:#141413;stroke:#141413;stroke-width:0.0061;stroke-linejoin:round"/>
<polygon class="eq-part" points="-0.625,0.1026 -0.44,0.1026 -0.44,0.1526 -0.625,0.1526" style="fill:#141413;stroke:#141413;stroke-width:0.0061;stroke-linejoin:round"/>
<polygon class="eq-part" points="0.28,-0.5093 0.36,-0.5093 0.36,-0.1307 0.28,-0.1307" style="fill:#141413;stroke:#141413;stroke-width:0.0061;stroke-linejoin:round"/>
<polygon class="eq-part" points="0.32,-0.1925 0.365,-0.1925 0.365,-0.1475 0.32,-0.1475" style="fill:#141413;stroke:#141413;stroke-width:0.0061;stroke-linejoin:round"/>
<polygon class="eq-part" points="-0.36,-0.5093 -0.28,-0.5093 -0.28,-0.1307 -0.36,-0.1307" style="fill:#141413;stroke:#141413;stroke-width:0.0061;stroke-linejoin:round"/>
<polygon class="eq-part" points="-0.365,-0.1925 -0.32,-0.1925 -0.32,-0.1475 -0.365,-0.1475" style="fill:#141413;stroke:#141413;stroke-width:0.0061;stroke-linejoin:round"/>
<polygon class="eq-part" points="-0.395,-0.51 0.395,-0.51 0.395,-0.43 -0.395,-0.43" style="fill:#141413;stroke:#141413;stroke-width:0.0061;stroke-linejoin:round"/>
<polygon class="eq-part" points="-0.32,-0.21 0.32,-0.21 0.32,-0.13 -0.32,-0.13" style="fill:#141413;stroke:#141413;stroke-width:0.0061;stroke-linejoin:round"/>
<polygon class="eq-part" points="0.28,-0.21 0.36,-0.21 0.36,-0.13 0.28,-0.13" style="fill:#141413;stroke:#141413;stroke-width:0.0061;stroke-linejoin:round"/>
<polygon class="eq-part" points="-0.36,-0.21 -0.28,-0.21 -0.28,-0.13 -0.36,-0.13" style="fill:#141413;stroke:#141413;stroke-width:0.0061;stroke-linejoin:round"/>
<polygon class="eq-part" points="-0.32,-0.21 0.32,-0.21 0.32,-0.13 -0.32,-0.13" style="fill:#141413;stroke:#141413;stroke-width:0.0061;stroke-linejoin:round"/>
</g>
<line class="eq-dim" x1="-0.665" y1="1.4274" x2="0.665" y2="1.4274" style="stroke:#6d6a63;stroke-width:0.0121"/>
<line class="eq-dim" x1="-0.665" y1="1.3642" x2="-0.665" y2="1.4907" style="stroke:#6d6a63;stroke-width:0.0121"/>
<line class="eq-dim" x1="0.665" y1="1.3642" x2="0.665" y2="1.4907" style="stroke:#6d6a63;stroke-width:0.0121"/>
<text class="eq-text" x="0" y="1.5549" style="font-family:Barlow,Inter,Arial,sans-serif;font-size:0.0911px;fill:#6d6a63;text-anchor:middle">L 1330 mm</text>
<line class="eq-dim" x1="1.4674" y1="-0.625" x2="1.4674" y2="0.625" style="stroke:#6d6a63;stroke-width:0.0121"/>
<line class="eq-dim" x1="1.4042" y1="-0.625" x2="1.5307" y2="-0.625" style="stroke:#6d6a63;stroke-width:0.0121"/>
<line class="eq-dim" x1="1.4042" y1="0.625" x2="1.5307" y2="0.625" style="stroke:#6d6a63;stroke-width:0.0121"/>
<text class="eq-text" x="1.5858" y="0" transform="rotate(90 1.5858 0)" style="font-family:Barlow,Inter,Arial,sans-serif;font-size:0.0911px;fill:#6d6a63;text-anchor:middle">C 1250 mm</text>
<text class="eq-text" x="0" y="1.646" style="font-family:Barlow,Inter,Arial,sans-serif;font-size:0.0911px;fill:#6d6a63;text-anchor:middle;font-size:0.0729px;letter-spacing:.1em">▼ FRENTE</text>
</svg>