<svg xmlns="http://www.w3.org/2000/svg" viewBox="-1.313 -1.6771 2.9274 3.5364" role="img" aria-label="Planta do Estação Multifuncional Dupla (LD-B035): 1150 × 1560 mm, com 60 cm de área de treino em volta" data-equipment="LD-B035" data-unit="m">
<title>Planta do Estação Multifuncional Dupla (LD-B035): 1150 × 1560 mm, com 60 cm de área de treino em volta</title>
<rect class="eq-zone" x="-1.175" y="-1.3801" width="2.35" height="2.7603" style="fill:#96764a;fill-opacity:.12;stroke:#96764a;stroke-width:0.0166;stroke-dasharray:0.0994 0.0662"/>
<text class="eq-zone-label" x="0" y="-1.4298" style="font-family:Barlow,Inter,Arial,sans-serif;font-size:0.0944px;fill:#96764a;text-anchor:middle">área de treino · 2,35 × 2,76 m · 6,49 m²</text>
<g class="eq-parts">
<polygon class="eq-part" points="-0.5508,-0.4088 -0.5192,-0.4712 -0.1242,-0.2712 -0.1558,-0.2088" style="fill:#141413;stroke:#141413;stroke-width:0.0066;stroke-linejoin:round"/>
<polygon class="eq-part" points="-0.575,-0.49 -0.455,-0.49 -0.455,-0.39 -0.575,-0.39" style="fill:#141413;stroke:#141413;stroke-width:0.0066;stroke-linejoin:round"/>
<polygon class="eq-part" points="-0.5508,0.4088 -0.1558,0.2088 -0.1242,0.2712 -0.5192,0.4712" style="fill:#141413;stroke:#141413;stroke-width:0.0066;stroke-linejoin:round"/>
<polygon class="eq-part" points="-0.575,0.39 -0.455,0.39 -0.455,0.49 -0.575,0.49" style="fill:#141413;stroke:#141413;stroke-width:0.0066;stroke-linejoin:round"/>
<polygon class="eq-part" points="0.1242,-0.2712 0.5192,-0.4712 0.5508,-0.4088 0.1558,-0.2088" style="fill:#141413;stroke:#141413;stroke-width:0.0066;stroke-linejoin:round"/>
<polygon class="eq-part" points="0.455,-0.49 0.575,-0.49 0.575,-0.39 0.455,-0.39" style="fill:#141413;stroke:#141413;stroke-width:0.0066;stroke-linejoin:round"/>
<polygon class="eq-part" points="0.1242,0.2712 0.1558,0.2088 0.5508,0.4088 0.5192,0.4712" style="fill:#141413;stroke:#141413;stroke-width:0.0066;stroke-linejoin:round"/>
<polygon class="eq-part" points="0.455,0.39 0.575,0.39 0.575,0.49 0.455,0.49" style="fill:#141413;stroke:#141413;stroke-width:0.0066;stroke-linejoin:round"/>
<polygon class="eq-part" points="-0.18,-0.28 0.18,-0.28 0.18,-0.25 -0.18,-0.25" style="fill:#141413;stroke:#141413;stroke-width:0.0066;stroke-linejoin:round"/>
<polygon class="eq-part" points="-0.18,0.25 0.18,0.25 0.18,0.28 -0.18,0.28" style="fill:#141413;stroke:#141413;stroke-width:0.0066;stroke-linejoin:round"/>
<polygon class="eq-part" points="-0.18,-0.28 -0.16,-0.28 -0.16,0.28 -0.18,0.28" style="fill:#141413;stroke:#141413;stroke-width:0.0066;stroke-linejoin:round"/>
<polygon class="eq-part" points="-0.18,-0.28 0.18,-0.28 0.18,0.28 -0.18,0.28" style="fill:#141413;stroke:#141413;stroke-width:0.0066;stroke-linejoin:round"/>
<polygon class="eq-part" points="-0.18,-0.28 0.18,-0.28 0.18,0.28 -0.18,0.28" style="fill:#141413;stroke:#141413;stroke-width:0.0066;stroke-linejoin:round"/>
<polygon class="eq-part" points="-0.205,-0.305 0.205,-0.305 0.205,0.305 -0.205,0.305" style="fill:#141413;stroke:#141413;stroke-width:0.0066;stroke-linejoin:round"/>
<polygon class="eq-part" points="0.18,-0.1736 0.184,-0.1736 0.184,0.1736 0.18,0.1736" style="fill:#141413;stroke:#141413;stroke-width:0.0066;stroke-linejoin:round"/>
<polygon class="eq-part" points="0.055,-0.1232 0.0553,-0.1258 0.0563,-0.1282 0.0579,-0.1303 0.06,-0.1319 0.0624,-0.1329 0.065,-0.1332 0.0676,-0.1329 0.07,-0.1319 0.0721,-0.1303 0.0737,-0.1282 0.0747,-0.1258 0.075,-0.1232 0.0747,-0.1206 0.0737,-0.1182 0.0721,-0.1161 0.07,-0.1145 0.0676,-0.1135 0.065,-0.1132 0.0624,-0.1135 0.06,-0.1145 0.0579,-0.1161 0.0563,-0.1182 0.0553,-0.1206" style="fill:#141413;stroke:#141413;stroke-width:0.0066;stroke-linejoin:round"/>
<polygon class="eq-part" points="0.105,-0.1232 0.1053,-0.1258 0.1063,-0.1282 0.1079,-0.1303 0.11,-0.1319 0.1124,-0.1329 0.115,-0.1332 0.1176,-0.1329 0.12,-0.1319 0.1221,-0.1303 0.1237,-0.1282 0.1247,-0.1258 0.125,-0.1232 0.1247,-0.1206 0.1237,-0.1182 0.1221,-0.1161 0.12,-0.1145 0.1176,-0.1135 0.115,-0.1132 0.1124,-0.1135 0.11,-0.1145 0.1079,-0.1161 0.1063,-0.1182 0.1053,-0.1206" style="fill:#141413;stroke:#141413;stroke-width:0.0066;stroke-linejoin:round"/>
<polygon class="eq-part" points="0.015,-0.2382 0.165,-0.2382 0.165,-0.0082 0.015,-0.0082" style="fill:#141413;stroke:#141413;stroke-width:0.0066;stroke-linejoin:round"/>
<polygon class="eq-part" points="0.015,-0.2382 0.165,-0.2382 0.165,-0.0082 0.015,-0.0082" style="fill:#141413;stroke:#141413;stroke-width:0.0066;stroke-linejoin:round"/>
<polygon class="eq-part" points="0.025,-0.2232 0.155,-0.2232 0.155,-0.0232 0.025,-0.0232" style="fill:#141413;stroke:#141413;stroke-width:0.0066;stroke-linejoin:round"/>
<polygon class="eq-part" points="0.025,-0.2232 0.155,-0.2232 0.155,-0.0232 0.025,-0.0232" style="fill:#141413;stroke:#141413;stroke-width:0.0066;stroke-linejoin:round"/>
<polygon class="eq-part" points="0.025,-0.2232 0.155,-0.2232 0.155,-0.0232 0.025,-0.0232" style="fill:#141413;stroke:#141413;stroke-width:0.0066;stroke-linejoin:round"/>
<polygon class="eq-part" points="0.025,-0.2232 0.155,-0.2232 0.155,-0.0232 0.025,-0.0232" style="fill:#141413;stroke:#141413;stroke-width:0.0066;stroke-linejoin:round"/>
<polygon class="eq-part" points="0.025,-0.2232 0.155,-0.2232 0.155,-0.0232 0.025,-0.0232" style="fill:#141413;stroke:#141413;stroke-width:0.0066;stroke-linejoin:round"/>
<polygon class="eq-part" points="0.025,-0.2232 0.155,-0.2232 0.155,-0.0232 0.025,-0.0232" style="fill:#141413;stroke:#141413;stroke-width:0.0066;stroke-linejoin:round"/>
<polygon class="eq-part" points="0.025,-0.2232 0.155,-0.2232 0.155,-0.0232 0.025,-0.0232" style="fill:#141413;stroke:#141413;stroke-width:0.0066;stroke-linejoin:round"/>
<polygon class="eq-part" points="0.025,-0.2232 0.155,-0.2232 0.155,-0.0232 0.025,-0.0232" style="fill:#141413;stroke:#141413;stroke-width:0.0066;stroke-linejoin:round"/>
<polygon class="eq-part" points="0.025,-0.2232 0.155,-0.2232 0.155,-0.0232 0.025,-0.0232" style="fill:#141413;stroke:#141413;stroke-width:0.0066;stroke-linejoin:round"/>
<polygon class="eq-part" points="0.025,-0.2232 0.155,-0.2232 0.155,-0.0232 0.025,-0.0232" style="fill:#141413;stroke:#141413;stroke-width:0.0066;stroke-linejoin:round"/>
<polygon class="eq-part" points="0.025,-0.2232 0.155,-0.2232 0.155,-0.0232 0.025,-0.0232" style="fill:#141413;stroke:#141413;stroke-width:0.0066;stroke-linejoin:round"/>
<polygon class="eq-part" points="0.025,-0.2232 0.155,-0.2232 0.155,-0.0232 0.025,-0.0232" style="fill:#141413;stroke:#141413;stroke-width:0.0066;stroke-linejoin:round"/>
<polygon class="eq-part" points="0.084,-0.1232 0.0842,-0.1248 0.0848,-0.1262 0.0858,-0.1274 0.087,-0.1284 0.0884,-0.129 0.09,-0.1292 0.0916,-0.129 0.093,-0.1284 0.0942,-0.1274 0.0952,-0.1262 0.0958,-0.1248 0.096,-0.1232 0.0958,-0.1216 0.0952,-0.1202 0.0942,-0.119 0.093,-0.118 0.0916,-0.1174 0.09,-0.1172 0.0884,-0.1174 0.087,-0.118 0.0858,-0.119 0.0848,-0.1202 0.0842,-0.1216" style="fill:#141413;stroke:#141413;stroke-width:0.0066;stroke-linejoin:round"/>
<polygon class="eq-part" points="0.084,-0.0432 0.096,-0.0432 0.096,0.0268 0.084,0.0268" style="fill:#141413;stroke:#141413;stroke-width:0.0066;stroke-linejoin:round"/>
<polygon class="eq-part" points="0.055,0.1232 0.0553,0.1206 0.0563,0.1182 0.0579,0.1161 0.06,0.1145 0.0624,0.1135 0.065,0.1132 0.0676,0.1135 0.07,0.1145 0.0721,0.1161 0.0737,0.1182 0.0747,0.1206 0.075,0.1232 0.0747,0.1258 0.0737,0.1282 0.0721,0.1303 0.07,0.1319 0.0676,0.1329 0.065,0.1332 0.0624,0.1329 0.06,0.1319 0.0579,0.1303 0.0563,0.1282 0.0553,0.1258" style="fill:#141413;stroke:#141413;stroke-width:0.0066;stroke-linejoin:round"/>
<polygon class="eq-part" points="0.105,0.1232 0.1053,0.1206 0.1063,0.1182 0.1079,0.1161 0.11,0.1145 0.1124,0.1135 0.115,0.1132 0.1176,0.1135 0.12,0.1145 0.1221,0.1161 0.1237,0.1182 0.1247,0.1206 0.125,0.1232 0.1247,0.1258 0.1237,0.1282 0.1221,0.1303 0.12,0.1319 0.1176,0.1329 0.115,0.1332 0.1124,0.1329 0.11,0.1319 0.1079,0.1303 0.1063,0.1282 0.1053,0.1258" style="fill:#141413;stroke:#141413;stroke-width:0.0066;stroke-linejoin:round"/>
<polygon class="eq-part" points="0.015,0.0082 0.165,0.0082 0.165,0.2382 0.015,0.2382" style="fill:#141413;stroke:#141413;stroke-width:0.0066;stroke-linejoin:round"/>
<polygon class="eq-part" points="0.015,0.0082 0.165,0.0082 0.165,0.2382 0.015,0.2382" style="fill:#141413;stroke:#141413;stroke-width:0.0066;stroke-linejoin:round"/>
<polygon class="eq-part" points="0.025,0.0232 0.155,0.0232 0.155,0.2232 0.025,0.2232" style="fill:#141413;stroke:#141413;stroke-width:0.0066;stroke-linejoin:round"/>
<polygon class="eq-part" points="0.025,0.0232 0.155,0.0232 0.155,0.2232 0.025,0.2232" style="fill:#141413;stroke:#141413;stroke-width:0.0066;stroke-linejoin:round"/>
<polygon class="eq-part" points="0.025,0.0232 0.155,0.0232 0.155,0.2232 0.025,0.2232" style="fill:#141413;stroke:#141413;stroke-width:0.0066;stroke-linejoin:round"/>
<polygon class="eq-part" points="0.025,0.0232 0.155,0.0232 0.155,0.2232 0.025,0.2232" style="fill:#141413;stroke:#141413;stroke-width:0.0066;stroke-linejoin:round"/>
<polygon class="eq-part" points="0.025,0.0232 0.155,0.0232 0.155,0.2232 0.025,0.2232" style="fill:#141413;stroke:#141413;stroke-width:0.0066;stroke-linejoin:round"/>
<polygon class="eq-part" points="0.025,0.0232 0.155,0.0232 0.155,0.2232 0.025,0.2232" style="fill:#141413;stroke:#141413;stroke-width:0.0066;stroke-linejoin:round"/>
<polygon class="eq-part" points="0.025,0.0232 0.155,0.0232 0.155,0.2232 0.025,0.2232" style="fill:#141413;stroke:#141413;stroke-width:0.0066;stroke-linejoin:round"/>
<polygon class="eq-part" points="0.025,0.0232 0.155,0.0232 0.155,0.2232 0.025,0.2232" style="fill:#141413;stroke:#141413;stroke-width:0.0066;stroke-linejoin:round"/>
<polygon class="eq-part" points="0.025,0.0232 0.155,0.0232 0.155,0.2232 0.025,0.2232" style="fill:#141413;stroke:#141413;stroke-width:0.0066;stroke-linejoin:round"/>
<polygon class="eq-part" points="0.025,0.0232 0.155,0.0232 0.155,0.2232 0.025,0.2232" style="fill:#141413;stroke:#141413;stroke-width:0.0066;stroke-linejoin:round"/>
<polygon class="eq-part" points="0.025,0.0232 0.155,0.0232 0.155,0.2232 0.025,0.2232" style="fill:#141413;stroke:#141413;stroke-width:0.0066;stroke-linejoin:round"/>
<polygon class="eq-part" points="0.025,0.0232 0.155,0.0232 0.155,0.2232 0.025,0.2232" style="fill:#141413;stroke:#141413;stroke-width:0.0066;stroke-linejoin:round"/>
<polygon class="eq-part" points="0.084,0.1232 0.0842,0.1216 0.0848,0.1202 0.0858,0.119 0.087,0.118 0.0884,0.1174 0.09,0.1172 0.0916,0.1174 0.093,0.118 0.0942,0.119 0.0952,0.1202 0.0958,0.1216 0.096,0.1232 0.0958,0.1248 0.0952,0.1262 0.0942,0.1274 0.093,0.1284 0.0916,0.129 0.09,0.1292 0.0884,0.129 0.087,0.1284 0.0858,0.1274 0.0848,0.1262 0.0842,0.1248" style="fill:#141413;stroke:#141413;stroke-width:0.0066;stroke-linejoin:round"/>
<polygon class="eq-part" points="0.084,0.2032 0.096,0.2032 0.096,0.2732 0.084,0.2732" style="fill:#141413;stroke:#141413;stroke-width:0.0066;stroke-linejoin:round"/>
<polygon class="eq-part" points="-0.21,-0.365 0.21,-0.365 0.21,-0.295 -0.21,-0.295" style="fill:#141413;stroke:#141413;stroke-width:0.0066;stroke-linejoin:round"/>
<polygon class="eq-part" points="-0.206,-0.4615 -0.202,-0.48 -0.198,-0.48 -0.194,-0.476 -0.194,-0.1985 -0.198,-0.18 -0.202,-0.18 -0.206,-0.184" style="fill:#141413;stroke:#141413;stroke-width:0.0066;stroke-linejoin:round"/>
<polygon class="eq-part" points="0.194,-0.4615 0.198,-0.48 0.202,-0.48 0.206,-0.476 0.206,-0.1985 0.202,-0.18 0.198,-0.18 0.194,-0.184" style="fill:#141413;stroke:#141413;stroke-width:0.0066;stroke-linejoin:round"/>
<polygon class="eq-part" points="-0.025,-0.7507 -0.0246,-0.7535 -0.0234,-0.7561 -0.0215,-0.7583 -0.019,-0.76 -0.0161,-0.7611 -0.013,-0.7614 0.013,-0.7614 0.0161,-0.7611 0.019,-0.76 0.0215,-0.7583 0.0234,-0.7561 0.0246,-0.7535 0.025,-0.7507 0.025,-0.3094 0.0246,-0.3067 0.0234,-0.3041 0.0215,-0.3018 0.019,-0.3001 0.0161,-0.2991 0.013,-0.2987 -0.013,-0.2987 -0.0161,-0.2991 -0.019,-0.3001 -0.0215,-0.3018 -0.0234,-0.3041 -0.0246,-0.3067 -0.025,-0.3094" style="fill:#141413;stroke:#141413;stroke-width:0.0066;stroke-linejoin:round"/>
<polygon class="eq-part" points="-0.008,-0.6902 -0.008,-0.7701 -0.0057,-0.7778 0,-0.7801 0.0057,-0.7778 0.008,-0.7721 0.008,-0.7701 0.008,-0.6902 0.0057,-0.6825 0,-0.6801 -0.0057,-0.6825 -0.008,-0.6881" style="fill:#141413;stroke:#141413;stroke-width:0.0066;stroke-linejoin:round"/>
<polygon class="eq-part" points="-0.015,-0.7376 0.015,-0.7451 0.015,-0.7226 -0.015,-0.7151" style="fill:#141413;stroke:#141413;stroke-width:0.0066;stroke-linejoin:round"/>
<polygon class="eq-part" points="-0.004,-0.7501 -0.0039,-0.7512 -0.0035,-0.7521 -0.0028,-0.7529 -0.002,-0.7536 -0.001,-0.754 0,-0.7541 0.001,-0.754 0.002,-0.7536 0.0028,-0.7529 0.0035,-0.7521 0.0039,-0.7512 0.004,-0.7501 0.004,-0.7301 0.0039,-0.7291 0.0035,-0.7281 0.0028,-0.7273 0.002,-0.7267 0.001,-0.7263 0,-0.7261 -0.001,-0.7263 -0.002,-0.7267 -0.0028,-0.7273 -0.0035,-0.7281 -0.0039,-0.7291 -0.004,-0.7301" style="fill:#141413;stroke:#141413;stroke-width:0.0066;stroke-linejoin:round"/>
<polygon class="eq-part" points="-0.06,-0.7681 0.06,-0.7681 0.06,-0.7321 -0.06,-0.7321" style="fill:#141413;stroke:#141413;stroke-width:0.0066;stroke-linejoin:round"/>
<polygon class="eq-part" points="-0.21,0.295 0.21,0.295 0.21,0.365 -0.21,0.365" style="fill:#141413;stroke:#141413;stroke-width:0.0066;stroke-linejoin:round"/>
<polygon class="eq-part" points="-0.206,0.1985 -0.202,0.18 -0.198,0.18 -0.194,0.184 -0.194,0.4615 -0.198,0.48 -0.202,0.48 -0.206,0.476" style="fill:#141413;stroke:#141413;stroke-width:0.0066;stroke-linejoin:round"/>
<polygon class="eq-part" points="0.194,0.1985 0.198,0.18 0.202,0.18 0.206,0.184 0.206,0.4615 0.202,0.48 0.198,0.48 0.194,0.476" style="fill:#141413;stroke:#141413;stroke-width:0.0066;stroke-linejoin:round"/>
<polygon class="eq-part" points="-0.025,0.3094 -0.0246,0.3067 -0.0234,0.3041 -0.0215,0.3018 -0.019,0.3001 -0.0161,0.2991 -0.013,0.2987 0.013,0.2987 0.0161,0.2991 0.019,0.3001 0.0215,0.3018 0.0234,0.3041 0.0246,0.3067 0.025,0.3094 0.025,0.7507 0.0246,0.7535 0.0234,0.7561 0.0215,0.7583 0.019,0.76 0.0161,0.7611 0.013,0.7614 -0.013,0.7614 -0.0161,0.7611 -0.019,0.76 -0.0215,0.7583 -0.0234,0.7561 -0.0246,0.7535 -0.025,0.7507" style="fill:#141413;stroke:#141413;stroke-width:0.0066;stroke-linejoin:round"/>
<polygon class="eq-part" points="-0.008,0.7701 -0.008,0.6902 -0.0057,0.6825 0,0.6801 0.0057,0.6825 0.008,0.6881 0.008,0.6902 0.008,0.7701 0.0057,0.7778 0,0.7801 -0.0057,0.7778 -0.008,0.7721" style="fill:#141413;stroke:#141413;stroke-width:0.0066;stroke-linejoin:round"/>
<polygon class="eq-part" points="-0.015,0.7226 0.015,0.7151 0.015,0.7376 -0.015,0.7451" style="fill:#141413;stroke:#141413;stroke-width:0.0066;stroke-linejoin:round"/>
<polygon class="eq-part" points="-0.004,0.7301 -0.0039,0.7291 -0.0035,0.7281 -0.0028,0.7273 -0.002,0.7267 -0.001,0.7263 0,0.7261 0.001,0.7263 0.002,0.7267 0.0028,0.7273 0.0035,0.7281 0.0039,0.7291 0.004,0.7301 0.004,0.7501 0.0039,0.7512 0.0035,0.7521 0.0028,0.7529 0.002,0.7536 0.001,0.754 0,0.7541 -0.001,0.754 -0.002,0.7536 -0.0028,0.7529 -0.0035,0.7521 -0.0039,0.7512 -0.004,0.7501" style="fill:#141413;stroke:#141413;stroke-width:0.0066;stroke-linejoin:round"/>
<polygon class="eq-part" points="-0.06,0.7321 0.06,0.7321 0.06,0.7681 -0.06,0.7681" style="fill:#141413;stroke:#141413;stroke-width:0.0066;stroke-linejoin:round"/>
</g>
<line class="eq-dim" x1="-0.575" y1="1.601" x2="0.575" y2="1.601" style="stroke:#6d6a63;stroke-width:0.0132"/>
<line class="eq-dim" x1="-0.575" y1="1.5319" x2="-0.575" y2="1.67" style="stroke:#6d6a63;stroke-width:0.0132"/>
<line class="eq-dim" x1="0.575" y1="1.5319" x2="0.575" y2="1.67" style="stroke:#6d6a63;stroke-width:0.0132"/>
<text class="eq-text" x="0" y="1.7401" style="font-family:Barlow,Inter,Arial,sans-serif;font-size:0.0994px;fill:#6d6a63;text-anchor:middle">L 1150 mm</text>
<line class="eq-dim" x1="1.3958" y1="-0.7801" x2="1.3958" y2="0.7801" style="stroke:#6d6a63;stroke-width:0.0132"/>
<line class="eq-dim" x1="1.3268" y1="-0.7801" x2="1.4648" y2="-0.7801" style="stroke:#6d6a63;stroke-width:0.0132"/>
<line class="eq-dim" x1="1.3268" y1="0.7801" x2="1.4648" y2="0.7801" style="stroke:#6d6a63;stroke-width:0.0132"/>
<text class="eq-text" x="1.525" y="0" transform="rotate(90 1.525 0)" style="font-family:Barlow,Inter,Arial,sans-serif;font-size:0.0994px;fill:#6d6a63;text-anchor:middle">C 1560 mm</text>
<text class="eq-text" x="0" y="1.8394" style="font-family:Barlow,Inter,Arial,sans-serif;font-size:0.0994px;fill:#6d6a63;text-anchor:middle;font-size:0.0795px;letter-spacing:.1em">▼ FRENTE</text>
</svg>