<svg xmlns="http://www.w3.org/2000/svg" viewBox="-1.1834 -1.3944 2.6173 2.9404" role="img" aria-label="Planta do Elevação Lateral Sentado (LD-B005): 937 × 1095 mm, com 60 cm de área de treino em volta" data-equipment="LD-B005" data-unit="m">
<title>Planta do Elevação Lateral Sentado (LD-B005): 937 × 1095 mm, com 60 cm de área de treino em volta</title>
<rect class="eq-zone" x="-1.0686" y="-1.1475" width="2.1372" height="2.295" style="fill:#96764a;fill-opacity:.12;stroke:#96764a;stroke-width:0.0138;stroke-dasharray:0.0826 0.0551"/>
<text class="eq-zone-label" x="0" y="-1.1888" style="font-family:Barlow,Inter,Arial,sans-serif;font-size:0.0785px;fill:#96764a;text-anchor:middle">área de treino · 2,14 × 2,30 m · 4,90 m²</text>
<g class="eq-parts">
<polygon class="eq-part" points="-0.2164,-0.5475 -0.1464,-0.5475 -0.1464,0.5475 -0.2164,0.5475" style="fill:#141413;stroke:#141413;stroke-width:0.0055;stroke-linejoin:round"/>
<polygon class="eq-part" points="-0.2314,-0.5425 -0.1314,-0.5425 -0.1314,-0.3725 -0.2314,-0.3725" style="fill:#141413;stroke:#141413;stroke-width:0.0055;stroke-linejoin:round"/>
<polygon class="eq-part" points="-0.1924,-0.5125 -0.192,-0.5153 -0.1909,-0.518 -0.1892,-0.5203 -0.1869,-0.522 -0.1842,-0.5231 -0.1814,-0.5235 -0.1785,-0.5231 -0.1759,-0.522 -0.1736,-0.5203 -0.1719,-0.518 -0.1708,-0.5153 -0.1704,-0.5125 -0.1708,-0.5097 -0.1719,-0.507 -0.1736,-0.5047 -0.1759,-0.503 -0.1785,-0.5019 -0.1814,-0.5015 -0.1842,-0.5019 -0.1869,-0.503 -0.1892,-0.5047 -0.1909,-0.507 -0.192,-0.5097" style="fill:#141413;stroke:#141413;stroke-width:0.0055;stroke-linejoin:round"/>
<polygon class="eq-part" points="-0.1924,-0.4025 -0.192,-0.4053 -0.1909,-0.408 -0.1892,-0.4103 -0.1869,-0.412 -0.1842,-0.4131 -0.1814,-0.4135 -0.1785,-0.4131 -0.1759,-0.412 -0.1736,-0.4103 -0.1719,-0.408 -0.1708,-0.4053 -0.1704,-0.4025 -0.1708,-0.3997 -0.1719,-0.397 -0.1736,-0.3947 -0.1759,-0.393 -0.1785,-0.3919 -0.1814,-0.3915 -0.1842,-0.3919 -0.1869,-0.393 -0.1892,-0.3947 -0.1909,-0.397 -0.192,-0.3997" style="fill:#141413;stroke:#141413;stroke-width:0.0055;stroke-linejoin:round"/>
<polygon class="eq-part" points="-0.2314,0.3725 -0.1314,0.3725 -0.1314,0.5425 -0.2314,0.5425" style="fill:#141413;stroke:#141413;stroke-width:0.0055;stroke-linejoin:round"/>
<polygon class="eq-part" points="-0.1924,0.4025 -0.192,0.3997 -0.1909,0.397 -0.1892,0.3947 -0.1869,0.393 -0.1842,0.3919 -0.1814,0.3915 -0.1785,0.3919 -0.1759,0.393 -0.1736,0.3947 -0.1719,0.397 -0.1708,0.3997 -0.1704,0.4025 -0.1708,0.4053 -0.1719,0.408 -0.1736,0.4103 -0.1759,0.412 -0.1785,0.4131 -0.1814,0.4135 -0.1842,0.4131 -0.1869,0.412 -0.1892,0.4103 -0.1909,0.408 -0.192,0.4053" style="fill:#141413;stroke:#141413;stroke-width:0.0055;stroke-linejoin:round"/>
<polygon class="eq-part" points="-0.1924,0.5125 -0.192,0.5097 -0.1909,0.507 -0.1892,0.5047 -0.1869,0.503 -0.1842,0.5019 -0.1814,0.5015 -0.1785,0.5019 -0.1759,0.503 -0.1736,0.5047 -0.1719,0.507 -0.1708,0.5097 -0.1704,0.5125 -0.1708,0.5153 -0.1719,0.518 -0.1736,0.5203 -0.1759,0.522 -0.1785,0.5231 -0.1814,0.5235 -0.1842,0.5231 -0.1869,0.522 -0.1892,0.5203 -0.1909,0.518 -0.192,0.5153" style="fill:#141413;stroke:#141413;stroke-width:0.0055;stroke-linejoin:round"/>
<polygon class="eq-part" points="-0.2184,-0.5475 -0.1444,-0.5475 -0.1444,-0.5355 -0.2184,-0.5355" style="fill:#141413;stroke:#141413;stroke-width:0.0055;stroke-linejoin:round"/>
<polygon class="eq-part" points="-0.2184,0.5355 -0.1444,0.5355 -0.1444,0.5475 -0.2184,0.5475" style="fill:#141413;stroke:#141413;stroke-width:0.0055;stroke-linejoin:round"/>
<polygon class="eq-part" points="0.3836,-0.5475 0.4536,-0.5475 0.4536,0.5475 0.3836,0.5475" style="fill:#141413;stroke:#141413;stroke-width:0.0055;stroke-linejoin:round"/>
<polygon class="eq-part" points="0.3686,-0.5425 0.4686,-0.5425 0.4686,-0.3725 0.3686,-0.3725" style="fill:#141413;stroke:#141413;stroke-width:0.0055;stroke-linejoin:round"/>
<polygon class="eq-part" points="0.4076,-0.5125 0.408,-0.5153 0.4091,-0.518 0.4108,-0.5203 0.4131,-0.522 0.4158,-0.5231 0.4186,-0.5235 0.4215,-0.5231 0.4241,-0.522 0.4264,-0.5203 0.4281,-0.518 0.4292,-0.5153 0.4296,-0.5125 0.4292,-0.5097 0.4281,-0.507 0.4264,-0.5047 0.4241,-0.503 0.4215,-0.5019 0.4186,-0.5015 0.4158,-0.5019 0.4131,-0.503 0.4108,-0.5047 0.4091,-0.507 0.408,-0.5097" style="fill:#141413;stroke:#141413;stroke-width:0.0055;stroke-linejoin:round"/>
<polygon class="eq-part" points="0.4076,-0.4025 0.408,-0.4053 0.4091,-0.408 0.4108,-0.4103 0.4131,-0.412 0.4158,-0.4131 0.4186,-0.4135 0.4215,-0.4131 0.4241,-0.412 0.4264,-0.4103 0.4281,-0.408 0.4292,-0.4053 0.4296,-0.4025 0.4292,-0.3997 0.4281,-0.397 0.4264,-0.3947 0.4241,-0.393 0.4215,-0.3919 0.4186,-0.3915 0.4158,-0.3919 0.4131,-0.393 0.4108,-0.3947 0.4091,-0.397 0.408,-0.3997" style="fill:#141413;stroke:#141413;stroke-width:0.0055;stroke-linejoin:round"/>
<polygon class="eq-part" points="0.3686,0.3725 0.4686,0.3725 0.4686,0.5425 0.3686,0.5425" style="fill:#141413;stroke:#141413;stroke-width:0.0055;stroke-linejoin:round"/>
<polygon class="eq-part" points="0.4076,0.4025 0.408,0.3997 0.4091,0.397 0.4108,0.3947 0.4131,0.393 0.4158,0.3919 0.4186,0.3915 0.4215,0.3919 0.4241,0.393 0.4264,0.3947 0.4281,0.397 0.4292,0.3997 0.4296,0.4025 0.4292,0.4053 0.4281,0.408 0.4264,0.4103 0.4241,0.412 0.4215,0.4131 0.4186,0.4135 0.4158,0.4131 0.4131,0.412 0.4108,0.4103 0.4091,0.408 0.408,0.4053" style="fill:#141413;stroke:#141413;stroke-width:0.0055;stroke-linejoin:round"/>
<polygon class="eq-part" points="0.4076,0.5125 0.408,0.5097 0.4091,0.507 0.4108,0.5047 0.4131,0.503 0.4158,0.5019 0.4186,0.5015 0.4215,0.5019 0.4241,0.503 0.4264,0.5047 0.4281,0.507 0.4292,0.5097 0.4296,0.5125 0.4292,0.5153 0.4281,0.518 0.4264,0.5203 0.4241,0.522 0.4215,0.5231 0.4186,0.5235 0.4158,0.5231 0.4131,0.522 0.4108,0.5203 0.4091,0.518 0.408,0.5153" style="fill:#141413;stroke:#141413;stroke-width:0.0055;stroke-linejoin:round"/>
<polygon class="eq-part" points="0.3816,-0.5475 0.4556,-0.5475 0.4556,-0.5355 0.3816,-0.5355" style="fill:#141413;stroke:#141413;stroke-width:0.0055;stroke-linejoin:round"/>
<polygon class="eq-part" points="0.3816,0.5355 0.4556,0.5355 0.4556,0.5475 0.3816,0.5475" style="fill:#141413;stroke:#141413;stroke-width:0.0055;stroke-linejoin:round"/>
<polygon class="eq-part" points="-0.1814,-0.3825 0.4186,-0.3825 0.4186,-0.3125 -0.1814,-0.3125" style="fill:#141413;stroke:#141413;stroke-width:0.0055;stroke-linejoin:round"/>
<polygon class="eq-part" points="-0.1814,0.3125 0.4186,0.3125 0.4186,0.3825 -0.1814,0.3825" style="fill:#141413;stroke:#141413;stroke-width:0.0055;stroke-linejoin:round"/>
<polygon class="eq-part" points="-0.4686,-0.076 -0.1814,-0.076 -0.1814,-0.006 -0.4686,-0.006" style="fill:#141413;stroke:#141413;stroke-width:0.0055;stroke-linejoin:round"/>
<polygon class="eq-part" points="-0.4686,0.204 -0.1814,0.204 -0.1814,0.274 -0.4686,0.274" style="fill:#141413;stroke:#141413;stroke-width:0.0055;stroke-linejoin:round"/>
<polygon class="eq-part" points="-0.2875,0.249 -0.0475,0.249 -0.0475,0.279 -0.2875,0.279" style="fill:#141413;stroke:#141413;stroke-width:0.0055;stroke-linejoin:round"/>
<polygon class="eq-part" points="-0.2875,-0.081 -0.0475,-0.081 -0.0475,-0.051 -0.2875,-0.051" style="fill:#141413;stroke:#141413;stroke-width:0.0055;stroke-linejoin:round"/>
<polygon class="eq-part" points="-0.2875,0.279 -0.2875,-0.081 -0.0475,-0.081 -0.0475,0.279" style="fill:#141413;stroke:#141413;stroke-width:0.0055;stroke-linejoin:round"/>
<polygon class="eq-part" points="-0.3175,0.309 -0.3175,-0.111 -0.0175,-0.111 -0.0175,0.309" style="fill:#141413;stroke:#141413;stroke-width:0.0055;stroke-linejoin:round"/>
<polygon class="eq-part" points="-0.2875,0.239 -0.2875,-0.041 -0.2735,-0.041 -0.2735,0.239" style="fill:#141413;stroke:#141413;stroke-width:0.0055;stroke-linejoin:round"/>
<polygon class="eq-part" points="-0.2735,0.174 -0.2635,0.174 -0.2635,0.204 -0.2735,0.204" style="fill:#141413;stroke:#141413;stroke-width:0.0055;stroke-linejoin:round"/>
<polygon class="eq-part" points="-0.2735,-0.006 -0.2635,-0.006 -0.2635,0.024 -0.2735,0.024" style="fill:#141413;stroke:#141413;stroke-width:0.0055;stroke-linejoin:round"/>
<polygon class="eq-part" points="-0.0595,0.279 -0.0595,0.079 -0.0475,0.079 -0.0475,0.279" style="fill:#141413;stroke:#141413;stroke-width:0.0055;stroke-linejoin:round"/>
<polygon class="eq-part" points="-0.0595,0.009 -0.0595,-0.081 -0.0475,-0.081 -0.0475,0.009" style="fill:#141413;stroke:#141413;stroke-width:0.0055;stroke-linejoin:round"/>
<polygon class="eq-part" points="-0.1775,0.179 -0.1772,0.1764 -0.1762,0.174 -0.1746,0.1719 -0.1725,0.1703 -0.1701,0.1693 -0.1675,0.169 -0.1649,0.1693 -0.1625,0.1703 -0.1604,0.1719 -0.1588,0.174 -0.1578,0.1764 -0.1575,0.179 -0.1578,0.1816 -0.1588,0.184 -0.1604,0.1861 -0.1625,0.1877 -0.1649,0.1887 -0.1675,0.189 -0.1701,0.1887 -0.1725,0.1877 -0.1746,0.1861 -0.1762,0.184 -0.1772,0.1816" style="fill:#141413;stroke:#141413;stroke-width:0.0055;stroke-linejoin:round"/>
<polygon class="eq-part" points="-0.1775,0.019 -0.1772,0.0164 -0.1762,0.014 -0.1746,0.0119 -0.1725,0.0103 -0.1701,0.0093 -0.1675,0.009 -0.1649,0.0093 -0.1625,0.0103 -0.1604,0.0119 -0.1588,0.014 -0.1578,0.0164 -0.1575,0.019 -0.1578,0.0216 -0.1588,0.024 -0.1604,0.0261 -0.1625,0.0277 -0.1649,0.0287 -0.1675,0.029 -0.1701,0.0287 -0.1725,0.0277 -0.1746,0.0261 -0.1762,0.024 -0.1772,0.0216" style="fill:#141413;stroke:#141413;stroke-width:0.0055;stroke-linejoin:round"/>
<polygon class="eq-part" points="-0.2475,0.229 -0.2475,-0.031 -0.0875,-0.031 -0.0875,0.229" style="fill:#141413;stroke:#141413;stroke-width:0.0055;stroke-linejoin:round"/>
<polygon class="eq-part" points="-0.2475,0.229 -0.2475,-0.031 -0.0875,-0.031 -0.0875,0.229" style="fill:#141413;stroke:#141413;stroke-width:0.0055;stroke-linejoin:round"/>
<polygon class="eq-part" points="-0.1715,0.099 -0.1714,0.098 -0.171,0.097 -0.1703,0.0962 -0.1695,0.0955 -0.1685,0.0951 -0.1675,0.095 -0.1665,0.0951 -0.1655,0.0955 -0.1647,0.0962 -0.164,0.097 -0.1636,0.098 -0.1635,0.099 -0.1636,0.1 -0.164,0.101 -0.1647,0.1018 -0.1655,0.1025 -0.1665,0.1029 -0.1675,0.103 -0.1685,0.1029 -0.1695,0.1025 -0.1703,0.1018 -0.171,0.101 -0.1714,0.1" style="fill:#141413;stroke:#141413;stroke-width:0.0055;stroke-linejoin:round"/>
<polygon class="eq-part" points="-0.2325,0.219 -0.2325,-0.021 -0.1025,-0.021 -0.1025,0.219" style="fill:#141413;stroke:#141413;stroke-width:0.0055;stroke-linejoin:round"/>
<polygon class="eq-part" points="-0.2325,0.219 -0.2325,-0.021 -0.1025,-0.021 -0.1025,0.219" style="fill:#141413;stroke:#141413;stroke-width:0.0055;stroke-linejoin:round"/>
<polygon class="eq-part" points="-0.2325,0.219 -0.2325,-0.021 -0.1025,-0.021 -0.1025,0.219" style="fill:#141413;stroke:#141413;stroke-width:0.0055;stroke-linejoin:round"/>
<polygon class="eq-part" points="-0.2325,0.219 -0.2325,-0.021 -0.1025,-0.021 -0.1025,0.219" style="fill:#141413;stroke:#141413;stroke-width:0.0055;stroke-linejoin:round"/>
<polygon class="eq-part" points="-0.2325,0.219 -0.2325,-0.021 -0.1025,-0.021 -0.1025,0.219" style="fill:#141413;stroke:#141413;stroke-width:0.0055;stroke-linejoin:round"/>
<polygon class="eq-part" points="-0.2325,0.219 -0.2325,-0.021 -0.1025,-0.021 -0.1025,0.219" style="fill:#141413;stroke:#141413;stroke-width:0.0055;stroke-linejoin:round"/>
<polygon class="eq-part" points="-0.2325,0.219 -0.2325,-0.021 -0.1025,-0.021 -0.1025,0.219" style="fill:#141413;stroke:#141413;stroke-width:0.0055;stroke-linejoin:round"/>
<polygon class="eq-part" points="-0.2325,0.219 -0.2325,-0.021 -0.1025,-0.021 -0.1025,0.219" style="fill:#141413;stroke:#141413;stroke-width:0.0055;stroke-linejoin:round"/>
<polygon class="eq-part" points="-0.2325,0.219 -0.2325,-0.021 -0.1025,-0.021 -0.1025,0.219" style="fill:#141413;stroke:#141413;stroke-width:0.0055;stroke-linejoin:round"/>
<polygon class="eq-part" points="-0.2325,0.219 -0.2325,-0.021 -0.1025,-0.021 -0.1025,0.219" style="fill:#141413;stroke:#141413;stroke-width:0.0055;stroke-linejoin:round"/>
<polygon class="eq-part" points="-0.2325,0.219 -0.2325,-0.021 -0.1025,-0.021 -0.1025,0.219" style="fill:#141413;stroke:#141413;stroke-width:0.0055;stroke-linejoin:round"/>
<polygon class="eq-part" points="-0.1735,0.099 -0.1733,0.0974 -0.1727,0.096 -0.1717,0.0948 -0.1705,0.0938 -0.1691,0.0932 -0.1675,0.093 -0.1659,0.0932 -0.1645,0.0938 -0.1633,0.0948 -0.1623,0.096 -0.1617,0.0974 -0.1615,0.099 -0.1617,0.1006 -0.1623,0.102 -0.1633,0.1032 -0.1645,0.1042 -0.1659,0.1048 -0.1675,0.105 -0.1691,0.1048 -0.1705,0.1042 -0.1717,0.1032 -0.1727,0.102 -0.1733,0.1006" style="fill:#141413;stroke:#141413;stroke-width:0.0055;stroke-linejoin:round"/>
<polygon class="eq-part" points="-0.1225,0.093 -0.0525,0.093 -0.0525,0.105 -0.1225,0.105" style="fill:#141413;stroke:#141413;stroke-width:0.0055;stroke-linejoin:round"/>
<polygon class="eq-part" points="-0.2875,0.249 -0.2875,-0.051 -0.2755,-0.051 -0.2755,0.249" style="fill:#141413;stroke:#141413;stroke-width:0.0055;stroke-linejoin:round"/>
<polygon class="eq-part" points="0.0836,0.196 0.084,0.1929 0.0852,0.19 0.0871,0.1875 0.0896,0.1856 0.0925,0.1844 0.0956,0.184 0.1416,0.184 0.1447,0.1844 0.1476,0.1856 0.1501,0.1875 0.152,0.19 0.1532,0.1929 0.1536,0.196 0.1536,0.242 0.1532,0.2451 0.152,0.248 0.1501,0.2505 0.1476,0.2524 0.1447,0.2536 0.1416,0.254 0.0956,0.254 0.0925,0.2536 0.0896,0.2524 0.0871,0.2505 0.0852,0.248 0.084,0.2451 0.0836,0.242" style="fill:#141413;stroke:#141413;stroke-width:0.0055;stroke-linejoin:round"/>
<polygon class="eq-part" points="0.0716,0.2415 0.0716,0.1965 0.0836,0.1965 0.0836,0.2415" style="fill:#141413;stroke:#141413;stroke-width:0.0055;stroke-linejoin:round"/>
<polygon class="eq-part" points="0.0011,0.219 0.0012,0.2172 0.0015,0.2155 0.0019,0.2141 0.0024,0.2129 0.003,0.2122 0.0036,0.212 0.0836,0.212 0.0842,0.2122 0.0848,0.2129 0.0853,0.2141 0.0857,0.2155 0.086,0.2172 0.0861,0.219 0.086,0.2208 0.0857,0.2225 0.0853,0.2239 0.0848,0.2251 0.0842,0.2258 0.0836,0.226 0.0036,0.226 0.003,0.2258 0.0024,0.2251 0.0019,0.2239 0.0015,0.2225 0.0012,0.2208" style="fill:#141413;stroke:#141413;stroke-width:0.0055;stroke-linejoin:round"/>
<polygon class="eq-part" points="-0.0714,0.3567 -0.0714,0.0813 -0.0697,0.0711 -0.066,0.0634 -0.0619,0.0585 -0.057,0.0544 -0.0493,0.0507 -0.0391,0.049 0.2763,0.049 0.2865,0.0507 0.2942,0.0544 0.2991,0.0585 0.3032,0.0634 0.3069,0.0711 0.3086,0.0813 0.3086,0.3567 0.3069,0.3669 0.3032,0.3746 0.2991,0.3795 0.2942,0.3836 0.2865,0.3873 0.2763,0.389 -0.0391,0.389 -0.0493,0.3873 -0.057,0.3836 -0.0619,0.3795 -0.066,0.3746 -0.0697,0.3669" style="fill:#141413;stroke:#141413;stroke-width:0.0055;stroke-linejoin:round"/>
<polygon class="eq-part" points="0.0836,-0.134 0.084,-0.1371 0.0852,-0.14 0.0871,-0.1425 0.0896,-0.1444 0.0925,-0.1456 0.0956,-0.146 0.1416,-0.146 0.1447,-0.1456 0.1476,-0.1444 0.1501,-0.1425 0.152,-0.14 0.1532,-0.1371 0.1536,-0.134 0.1536,-0.088 0.1532,-0.0849 0.152,-0.082 0.1501,-0.0795 0.1476,-0.0776 0.1447,-0.0764 0.1416,-0.076 0.0956,-0.076 0.0925,-0.0764 0.0896,-0.0776 0.0871,-0.0795 0.0852,-0.082 0.084,-0.0849 0.0836,-0.088" style="fill:#141413;stroke:#141413;stroke-width:0.0055;stroke-linejoin:round"/>
<polygon class="eq-part" points="-0.0314,-0.0618 -0.0296,-0.0726 -0.0257,-0.0808 -0.0214,-0.086 -0.0162,-0.0903 -0.008,-0.0942 0.0028,-0.096 0.2344,-0.096 0.2452,-0.0942 0.2534,-0.0903 0.2586,-0.086 0.2629,-0.0808 0.2669,-0.0726 0.2686,-0.0618 0.2686,-0.0402 0.2669,-0.0294 0.2629,-0.0212 0.2586,-0.016 0.2534,-0.0117 0.2452,-0.0078 0.2344,-0.006 0.0028,-0.006 -0.008,-0.0078 -0.0162,-0.0117 -0.0214,-0.016 -0.0257,-0.0212 -0.0296,-0.0294 -0.0314,-0.0402" style="fill:#141413;stroke:#141413;stroke-width:0.0055;stroke-linejoin:round"/>
<polygon class="eq-part" points="-0.1264,0.244 -0.1264,0.154 -0.0364,0.154 -0.0364,0.244" style="fill:#141413;stroke:#141413;stroke-width:0.0055;stroke-linejoin:round"/>
<polygon class="eq-part" points="-0.2099,0.217 -0.2099,0.181 -0.2095,0.1779 -0.2083,0.175 -0.2065,0.1725 -0.2042,0.1706 -0.2014,0.1694 -0.1985,0.169 -0.0643,0.169 -0.0614,0.1694 -0.0586,0.1706 -0.0563,0.1725 -0.0545,0.175 -0.0533,0.1779 -0.0529,0.181 -0.0529,0.217 -0.0533,0.2201 -0.0545,0.223 -0.0563,0.2255 -0.0586,0.2274 -0.0614,0.2286 -0.0643,0.229 -0.1985,0.229 -0.2014,0.2286 -0.2042,0.2274 -0.2065,0.2255 -0.2083,0.223 -0.2095,0.2201" style="fill:#141413;stroke:#141413;stroke-width:0.0055;stroke-linejoin:round"/>
<polygon class="eq-part" points="-0.1614,0.1394 -0.1598,0.1298 -0.1563,0.1225 -0.1525,0.1179 -0.1479,0.1141 -0.1406,0.1106 -0.131,0.109 -0.1118,0.109 -0.1022,0.1106 -0.0949,0.1141 -0.0903,0.1179 -0.0865,0.1225 -0.083,0.1298 -0.0814,0.1394 -0.0814,0.2586 -0.083,0.2682 -0.0865,0.2755 -0.0903,0.2801 -0.0949,0.2839 -0.1022,0.2874 -0.1118,0.289 -0.131,0.289 -0.1406,0.2874 -0.1479,0.2839 -0.1525,0.2801 -0.1563,0.2755 -0.1598,0.2682 -0.1614,0.2586" style="fill:#141413;stroke:#141413;stroke-width:0.0055;stroke-linejoin:round"/>
<polygon class="eq-part" points="0.2736,0.154 0.3636,0.154 0.3636,0.244 0.2736,0.244" style="fill:#141413;stroke:#141413;stroke-width:0.0055;stroke-linejoin:round"/>
<polygon class="eq-part" points="0.2901,0.181 0.2905,0.1779 0.2917,0.175 0.2935,0.1725 0.2958,0.1706 0.2986,0.1694 0.3015,0.169 0.4357,0.169 0.4386,0.1694 0.4414,0.1706 0.4437,0.1725 0.4455,0.175 0.4467,0.1779 0.4471,0.181 0.4471,0.217 0.4467,0.2201 0.4455,0.223 0.4437,0.2255 0.4414,0.2274 0.4386,0.2286 0.4357,0.229 0.3015,0.229 0.2986,0.2286 0.2958,0.2274 0.2935,0.2255 0.2917,0.223 0.2905,0.2201 0.2901,0.217" style="fill:#141413;stroke:#141413;stroke-width:0.0055;stroke-linejoin:round"/>
<polygon class="eq-part" points="0.3186,0.1394 0.3202,0.1298 0.3237,0.1225 0.3275,0.1179 0.3321,0.1141 0.3394,0.1106 0.349,0.109 0.3682,0.109 0.3778,0.1106 0.3851,0.1141 0.3897,0.1179 0.3935,0.1225 0.397,0.1298 0.3986,0.1394 0.3986,0.2586 0.397,0.2682 0.3935,0.2755 0.3897,0.2801 0.3851,0.2839 0.3778,0.2874 0.3682,0.289 0.349,0.289 0.3394,0.2874 0.3321,0.2839 0.3275,0.2801 0.3237,0.2755 0.3202,0.2682 0.3186,0.2586" style="fill:#141413;stroke:#141413;stroke-width:0.0055;stroke-linejoin:round"/>
<polygon class="eq-part" points="-0.0414,0.177 -0.0414,-0.079 -0.041,-0.126 -0.0398,-0.1287 -0.0379,-0.1311 -0.0354,-0.1329 -0.0325,-0.1341 -0.0294,-0.1345 0.0166,-0.1345 0.0197,-0.1341 0.0226,-0.1329 0.0251,-0.1311 0.027,-0.1287 0.0282,-0.126 0.0286,-0.123 0.0286,-0.079 0.0286,0.177 0.0282,0.224 0.027,0.2267 0.0251,0.2291 0.0226,0.2309 0.0197,0.2321 0.0166,0.2325 -0.0294,0.2325 -0.0325,0.2321 -0.0354,0.2309 -0.0379,0.2291 -0.0398,0.2267 -0.041,0.224 -0.0414,0.221" style="fill:#141413;stroke:#141413;stroke-width:0.0055;stroke-linejoin:round"/>
<polygon class="eq-part" points="0.2086,0.177 0.2086,-0.079 0.209,-0.126 0.2102,-0.1287 0.2121,-0.1311 0.2146,-0.1329 0.2175,-0.1341 0.2206,-0.1345 0.2666,-0.1345 0.2697,-0.1341 0.2726,-0.1329 0.2751,-0.1311 0.277,-0.1287 0.2782,-0.126 0.2786,-0.123 0.2786,-0.079 0.2786,0.177 0.2782,0.224 0.277,0.2267 0.2751,0.2291 0.2726,0.2309 0.2697,0.2321 0.2666,0.2325 0.2206,0.2325 0.2175,0.2321 0.2146,0.2309 0.2121,0.2291 0.2102,0.2267 0.209,0.224 0.2086,0.221" style="fill:#141413;stroke:#141413;stroke-width:0.0055;stroke-linejoin:round"/>
<polygon class="eq-part" points="-0.0514,0.1765 -0.0064,0.1765 -0.0064,0.1831 -0.0064,0.2149 -0.0514,0.2215" style="fill:#141413;stroke:#141413;stroke-width:0.0055;stroke-linejoin:round"/>
<polygon class="eq-part" points="0.2436,0.1878 0.2436,0.1831 0.2886,0.1765 0.2886,0.2215 0.2436,0.2215" style="fill:#141413;stroke:#141413;stroke-width:0.0055;stroke-linejoin:round"/>
<polygon class="eq-part" points="-0.1814,-0.136 0.4186,-0.136 0.4186,-0.066 -0.1814,-0.066" style="fill:#141413;stroke:#141413;stroke-width:0.0055;stroke-linejoin:round"/>
<polygon class="eq-part" points="-0.0534,-0.021 -0.0534,-0.181 -0.0414,-0.181 -0.0414,-0.021" style="fill:#141413;stroke:#141413;stroke-width:0.0055;stroke-linejoin:round"/>
<polygon class="eq-part" points="-0.0614,-0.062 -0.0534,-0.062 -0.0534,-0.04 -0.0614,-0.04" style="fill:#141413;stroke:#141413;stroke-width:0.0055;stroke-linejoin:round"/>
<polygon class="eq-part" points="-0.0614,-0.162 -0.0534,-0.162 -0.0534,-0.14 -0.0614,-0.14" style="fill:#141413;stroke:#141413;stroke-width:0.0055;stroke-linejoin:round"/>
<polygon class="eq-part" points="0.2786,-0.181 0.2906,-0.181 0.2906,-0.021 0.2786,-0.021" style="fill:#141413;stroke:#141413;stroke-width:0.0055;stroke-linejoin:round"/>
<polygon class="eq-part" points="0.2906,-0.062 0.2986,-0.062 0.2986,-0.04 0.2906,-0.04" style="fill:#141413;stroke:#141413;stroke-width:0.0055;stroke-linejoin:round"/>
<polygon class="eq-part" points="0.2906,-0.162 0.2986,-0.162 0.2986,-0.14 0.2906,-0.14" style="fill:#141413;stroke:#141413;stroke-width:0.0055;stroke-linejoin:round"/>
</g>
<line class="eq-dim" x1="-0.4686" y1="1.3311" x2="0.4686" y2="1.3311" style="stroke:#6d6a63;stroke-width:0.011"/>
<line class="eq-dim" x1="-0.4686" y1="1.2737" x2="-0.4686" y2="1.3885" style="stroke:#6d6a63;stroke-width:0.011"/>
<line class="eq-dim" x1="0.4686" y1="1.2737" x2="0.4686" y2="1.3885" style="stroke:#6d6a63;stroke-width:0.011"/>
<text class="eq-text" x="0" y="1.4468" style="font-family:Barlow,Inter,Arial,sans-serif;font-size:0.0826px;fill:#6d6a63;text-anchor:middle">L 930 mm</text>
<line class="eq-dim" x1="1.2522" y1="-0.5475" x2="1.2522" y2="0.5475" style="stroke:#6d6a63;stroke-width:0.011"/>
<line class="eq-dim" x1="1.1948" y1="-0.5475" x2="1.3096" y2="-0.5475" style="stroke:#6d6a63;stroke-width:0.011"/>
<line class="eq-dim" x1="1.1948" y1="0.5475" x2="1.3096" y2="0.5475" style="stroke:#6d6a63;stroke-width:0.011"/>
<text class="eq-text" x="1.3596" y="0" transform="rotate(90 1.3596 0)" style="font-family:Barlow,Inter,Arial,sans-serif;font-size:0.0826px;fill:#6d6a63;text-anchor:middle">C 1095 mm</text>
<text class="eq-text" x="0" y="1.5294" style="font-family:Barlow,Inter,Arial,sans-serif;font-size:0.0826px;fill:#6d6a63;text-anchor:middle;font-size:0.0661px;letter-spacing:.1em">▼ FRENTE</text>
</svg>